<svg width="72" height="72" viewBox="0 0 72 72" fill="none" xmlns="http://www.w3.org/2000/svg">
    <g id="kitchen 1">
        <g id="Group">
            <g id="Group_2">
                <g id="Group_3">
                    <path id="Vector"
                        d="M69.5992 53.2389C66.8454 53.2389 64.1865 53.2389 61.4716 53.2389C61.4716 57.567 61.4716 61.8787 61.4716 66.231C64.1548 66.231 66.8128 66.231 69.6003 66.231C69.6003 65.7759 69.6015 65.322 69.6001 64.8678C69.5985 64.316 69.7608 63.8615 70.4021 63.8598C71.0306 63.8583 71.2213 64.2817 71.2194 64.8498C71.2132 66.6279 71.2235 68.4061 71.214 70.1844C71.2102 70.8926 70.943 71.1498 70.244 71.1748C70.0571 71.1815 69.8698 71.1765 69.6826 71.1765C53.2837 71.1765 36.8846 71.1767 20.4856 71.1757C20.2051 71.1757 19.8684 71.2601 19.658 71.1358C19.3786 70.9708 19.0276 70.6419 19.0228 70.3777C19.0181 70.1176 19.3612 69.7689 19.6381 69.6118C19.8725 69.4788 20.2308 69.5548 20.5342 69.5546C36.5589 69.5531 52.5836 69.5533 68.6083 69.5533C68.9064 69.5533 69.2043 69.5533 69.5503 69.5533C69.5503 68.9769 69.5503 68.4782 69.5503 67.952C47.2438 67.952 24.9791 67.952 2.66658 67.952C2.66658 68.4707 2.66658 68.9698 2.66658 69.5533C2.98252 69.5533 3.25646 69.5533 3.53021 69.5533C7.10939 69.5533 10.6888 69.5525 14.268 69.5548C14.5246 69.555 14.8438 69.4861 15.023 69.6099C15.2926 69.7959 15.6378 70.1297 15.629 70.3897C15.62 70.6537 15.2415 70.9292 14.9818 71.1485C14.8839 71.2312 14.6653 71.1753 14.5016 71.1755C10.4077 71.1763 6.31383 71.1774 2.21996 71.1753C1.19377 71.1748 1.00102 70.9787 1.00102 69.9399C0.999894 61.517 1.00008 53.094 1.00102 44.6711C1.00121 43.6181 1.21702 43.4004 2.27208 43.3976C3.83321 43.3934 5.39414 43.3965 7.13958 43.3965C5.60883 41.6894 5.92646 39.7278 5.90433 37.8313C5.89683 37.1941 6.21483 36.881 6.85027 36.8868C6.94383 36.8878 7.03983 36.872 7.13058 36.8879C8.92946 37.2014 10.3545 36.6187 11.403 35.1189C11.469 35.0246 11.565 34.9507 11.6491 34.8695C12.1554 34.3813 12.6435 34.3048 12.9881 34.6946C13.4362 35.2018 13.2196 35.6456 12.7886 36.0286C12.5336 36.2553 12.2527 36.4529 11.9835 36.6637C12.0345 36.7378 12.0853 36.8118 12.1363 36.8859C12.968 36.8859 13.7998 36.8789 14.6313 36.8879C15.4278 36.8964 15.6804 37.139 15.6916 37.9398C15.7031 38.7583 15.7912 39.5971 15.6466 40.3906C15.4635 41.3968 15.0795 42.3665 14.7823 43.3514C17.8074 43.3514 20.9928 43.3514 24.0768 43.3514C23.9786 42.2913 23.8828 41.2571 23.7826 40.1765C23.1875 40.061 22.2178 40.3475 22.2534 39.2827C22.2853 38.3317 23.1795 38.5779 23.7562 38.4661C23.799 38.4043 23.8451 38.3683 23.8483 38.3285C23.9655 36.8857 23.9649 36.8855 25.4413 36.8855C27.7338 36.8855 30.0264 36.8848 32.319 36.8859C33.4704 36.8864 33.5998 37.01 33.668 38.1513C33.6735 38.2413 33.695 38.3302 33.7149 38.4566C34.3368 38.6002 35.3161 38.3049 35.2522 39.3973C35.1982 40.3201 34.3681 40.0871 33.7605 40.1645C33.6523 41.2224 33.5448 42.2737 33.434 43.3567C35.0848 43.3567 36.8274 43.3567 38.5537 43.3567C38.5537 42.3614 38.5438 41.3893 38.5567 40.4173C38.5676 39.5949 38.8391 39.3196 39.6598 39.3181C43.2858 39.3116 46.9119 39.3121 50.5378 39.3179C51.2371 39.3191 51.6365 39.6318 51.6015 40.1525C51.5566 40.8179 51.1012 40.9794 50.52 40.9711C49.8236 40.9612 49.127 40.9689 48.347 40.9689C48.347 41.4249 48.347 41.8155 48.347 42.2058C48.347 42.5745 48.347 42.9431 48.347 43.3543C54.558 43.3543 60.7948 43.3543 67.086 43.3543C67.1025 43.1853 67.1347 43.0072 67.1349 42.8289C67.1385 40.6764 67.1291 38.5237 67.1426 36.3714C67.1461 35.7918 67.0175 35.3281 66.3628 35.2514C65.8385 35.1899 65.5201 35.6268 65.5055 36.3693C65.4967 36.8137 65.5128 37.259 65.4888 37.7023C65.4622 38.1989 65.1817 38.4918 64.6805 38.4828C64.1835 38.4738 63.9045 38.1804 63.8936 37.6805C63.8803 37.0726 63.8666 36.4625 63.9005 35.8561C63.966 34.6891 64.8935 33.7533 66.0558 33.6404C67.2783 33.5219 68.3715 34.2425 68.669 35.3966C68.7553 35.7314 68.7815 36.0894 68.7832 36.437C68.7935 38.4725 68.7883 40.508 68.7883 42.5437C68.7883 42.7963 68.7883 43.0488 68.7883 43.3965C69.2814 43.3965 69.7177 43.386 70.1533 43.3987C70.9443 43.422 71.2138 43.6818 71.2143 44.4575C71.2188 50.0261 71.2149 55.5945 71.2194 61.163C71.2198 61.7272 71.0469 62.1616 70.419 62.1718C69.7826 62.1819 69.6 61.7375 69.6 61.1801C69.5996 58.817 69.599 56.454 69.5986 54.0907C69.5992 53.8181 69.5992 53.5443 69.5992 53.2389ZM49.9636 45.102C40.6955 45.102 31.4733 45.102 22.2543 45.102C22.2543 52.1685 22.2543 59.1793 22.2543 66.2304C23.327 66.2304 24.3646 66.2304 25.481 66.2304C25.481 65.9214 25.481 65.6469 25.481 65.3724C25.481 61.1844 25.4793 56.9966 25.4825 52.8086C25.4833 51.845 25.7071 51.588 26.5968 51.5872C32.9362 51.5812 39.2758 51.5814 45.6151 51.587C46.484 51.5878 46.73 51.848 46.7341 52.7338C46.742 54.4183 46.7368 56.1028 46.7358 57.7873C46.7358 57.9041 46.7388 58.0226 46.7216 58.1375C46.6502 58.6143 46.3846 58.9325 45.8908 58.9188C45.4046 58.9053 45.1273 58.5963 45.0993 58.1047C45.0808 57.7781 45.0928 57.4498 45.0928 57.1222C45.0924 55.8418 45.0926 54.5613 45.0926 53.2543C39.072 53.2543 33.1237 53.2543 27.1625 53.2543C27.1625 56.5196 27.1625 59.7371 27.1625 62.9707C33.1494 62.9707 39.0988 62.9707 45.1003 62.9707C45.1003 62.3911 45.0086 61.8333 45.1353 61.3305C45.2092 61.0374 45.6127 60.674 45.9048 60.6373C46.1413 60.6075 46.493 60.9774 46.6794 61.2485C46.803 61.4283 46.7345 61.7467 46.7353 62.0032C46.7386 63.4001 46.737 64.797 46.737 66.2304C47.8533 66.2304 48.891 66.2304 49.9636 66.2304C49.9636 59.1795 49.9636 52.1686 49.9636 45.102ZM20.5485 66.2291C20.5485 62.9681 20.5485 59.7706 20.5485 56.5387C14.5655 56.5387 8.62046 56.5387 2.65683 56.5387C2.65683 59.7946 2.65683 62.991 2.65683 66.2291C8.62364 66.2291 14.5526 66.2291 20.5485 66.2291ZM20.5271 54.8173C20.5271 51.5486 20.5271 48.3189 20.5271 45.0909C14.54 45.0909 8.61202 45.0909 2.66433 45.0909C2.66433 48.3526 2.66433 51.5696 2.66433 54.8173C8.63846 54.8173 14.5666 54.8173 20.5271 54.8173ZM69.5426 51.5521C69.5426 49.35 69.5426 47.2171 69.5426 45.0858C63.5572 45.0858 57.6288 45.0858 51.6922 45.0858C51.6922 47.2578 51.6922 49.3897 51.6922 51.5521C57.6596 51.5521 63.5666 51.5521 69.5426 51.5521ZM59.7412 66.2709C59.7412 61.8538 59.7412 57.5482 59.7412 53.2496C57.0217 53.2496 54.3663 53.2496 51.6847 53.2496C51.6847 57.599 51.6847 61.9053 51.6847 66.2709C52.1066 66.2709 52.4761 66.2709 52.8457 66.2709C55.1326 66.2709 57.4196 66.2709 59.7412 66.2709ZM32.024 38.5623C29.8134 38.5623 27.6808 38.5623 25.5118 38.5623C25.5118 39.7297 25.4598 40.8478 25.5285 41.9583C25.5815 42.8158 26.2143 43.3608 27.0667 43.383C28.1861 43.412 29.3071 43.4124 30.4265 43.3848C31.3321 43.3625 31.9773 42.7507 32.0137 41.846C32.057 40.7756 32.024 39.7019 32.024 38.5623ZM7.57064 38.5561C7.57064 39.2716 7.50014 39.95 7.58471 40.6085C7.78852 42.1963 9.06071 43.3269 10.6162 43.3903C12.2726 43.4576 13.6501 42.4376 13.961 40.8123C14.0986 40.0925 14.0538 39.3378 14.094 38.5563C11.865 38.5561 9.72989 38.5561 7.57064 38.5561ZM45.072 64.7218C39.0586 64.7218 33.1117 64.7218 27.1689 64.7218C27.1689 65.2582 27.1689 65.738 27.1689 66.2163C33.1601 66.2163 39.1074 66.2163 45.072 66.2163C45.072 65.6998 45.072 65.2376 45.072 64.7218ZM40.187 41.0011C40.187 41.4916 40.1795 41.9302 40.1887 42.3684C40.2043 43.1156 40.4608 43.3854 41.1971 43.3931C42.3406 43.4049 43.4846 43.3931 44.6281 43.3976C46.6162 43.4053 46.8361 43.6636 46.7143 41.1504C46.7122 41.1099 46.6719 41.0711 46.6321 41.0011C44.531 41.0011 42.4132 41.0011 40.187 41.0011Z"
                        fill="#4A8780" />
                    <path id="Vector_2"
                        d="M36.0934 29.5241C31.9082 29.5241 27.7229 29.5254 23.5377 29.5234C22.4183 29.5228 22.2216 29.325 22.2196 28.2264C22.2182 27.4314 22.2451 26.6351 22.2104 25.8416C22.1867 25.2982 22.3876 24.9199 22.7888 24.5677C24.8798 22.7325 26.946 20.8689 29.0406 19.0378C29.4267 18.7003 29.5834 18.3562 29.5815 17.8384C29.5624 12.6705 29.5694 7.50242 29.5705 2.33436C29.5707 1.11017 29.7317 0.947044 30.9306 0.946669C34.4378 0.945919 37.945 0.944794 41.4522 0.947606C42.427 0.948356 42.6452 1.16304 42.6458 2.14986C42.6495 7.36461 42.6552 12.5795 42.6368 17.7943C42.6349 18.332 42.7898 18.6995 43.1972 19.0549C45.2241 20.8213 47.2138 22.6305 49.2437 24.3934C49.7816 24.8606 50.0696 25.349 50.0113 26.0825C49.9523 26.8262 50.001 27.5782 49.9975 28.3264C49.993 29.2832 49.7614 29.5213 48.789 29.5224C44.5573 29.5265 40.3255 29.5241 36.0934 29.5241ZM46.821 24.6285C46.8443 24.5692 46.8677 24.5098 46.891 24.4505C46.7621 24.3534 46.626 24.2645 46.5058 24.1579C44.8797 22.7139 43.2687 21.2522 41.6224 19.8315C41.1694 19.4407 41.0027 19.0256 41.0048 18.4385C41.0224 13.4334 41.0149 8.42811 41.0149 3.42279C41.0149 3.16911 41.0149 2.91542 41.0149 2.61786C37.7235 2.61786 34.4869 2.61786 31.2029 2.61786C31.2029 2.92104 31.2029 3.17623 31.2029 3.43123C31.2029 7.75817 31.0823 12.09 31.2548 16.4102C31.3384 18.5049 30.8177 19.9935 29.0835 21.2124C27.7418 22.1555 26.5979 23.3797 25.2467 24.5854C25.6339 24.6052 25.858 24.6262 26.082 24.6268C27.4384 24.6302 28.7948 24.6208 30.1512 24.6328C30.856 24.6392 31.2417 24.9555 31.1903 25.4809C31.1295 26.1043 30.7015 26.2575 30.145 26.2545C28.4145 26.2451 26.6839 26.2513 24.9533 26.2513C24.6107 26.2513 24.2684 26.2513 23.9228 26.2513C23.9228 26.8464 23.9228 27.3467 23.9228 27.8565C32.0783 27.8565 40.1807 27.8565 48.2981 27.8565C48.2981 27.3116 48.2981 26.8115 48.2981 26.2513C47.997 26.2513 47.7445 26.2513 47.4921 26.2513C43.3294 26.2513 39.1667 26.2517 35.004 26.2504C34.7706 26.2504 34.4682 26.3254 34.3187 26.2097C34.057 26.0068 33.7446 25.6916 33.7272 25.4066C33.7127 25.1724 34.0555 24.851 34.3148 24.6868C34.5034 24.5674 34.8145 24.6302 35.0708 24.63C38.7424 24.6275 42.4138 24.6283 46.0855 24.6283C46.3307 24.6285 46.576 24.6285 46.821 24.6285Z"
                        fill="#4A8780" />
                    <path id="Vector_3"
                        d="M13.2494 0.946258C16.8979 0.946258 20.5465 0.945508 24.195 0.94682C25.2983 0.947195 25.4796 1.11913 25.48 2.18751C25.482 7.89501 25.482 13.6025 25.4798 19.31C25.4794 20.3476 25.2912 20.5374 24.2459 20.5378C16.902 20.5404 9.55823 20.5406 2.21423 20.5376C1.18842 20.5372 1.0011 20.3375 1.00092 19.2899C0.99979 13.5824 0.999603 7.87494 1.00092 2.16744C1.0011 1.14051 1.19592 0.94757 2.23354 0.947008C5.90554 0.945133 9.57754 0.946258 13.2494 0.946258ZM23.8388 18.8771C23.8388 13.4144 23.8388 8.04219 23.8388 2.62007C20.5746 2.62007 17.3419 2.62007 14.1045 2.62007C14.1045 8.06301 14.1045 13.4548 14.1045 18.8771C17.3586 18.8771 20.572 18.8771 23.8388 18.8771ZM12.3852 2.63151C9.09229 2.63151 5.8806 2.63151 2.6736 2.63151C2.6736 8.08682 2.6736 13.4797 2.6736 18.8587C5.94285 18.8587 9.1566 18.8587 12.3852 18.8587C12.3852 13.4248 12.3852 8.04838 12.3852 2.63151Z"
                        fill="#4A8780" />
                    <path id="Vector_4"
                        d="M58.9586 0.946288C62.6306 0.946288 66.3024 0.945163 69.9744 0.94685C71.0208 0.947413 71.2166 1.13754 71.2169 2.15847C71.2184 7.88941 71.2186 13.6202 71.2168 19.3511C71.2164 20.3268 71.0084 20.5368 70.0115 20.5372C62.6443 20.5404 55.277 20.5404 47.9098 20.5367C46.9503 20.5361 46.7398 20.3274 46.7392 19.389C46.7358 13.6113 46.7354 7.83372 46.7396 2.05591C46.7401 1.16435 46.9657 0.948538 47.8728 0.9476C51.5679 0.944413 55.2631 0.946288 58.9586 0.946288ZM48.3884 2.61804C48.3884 8.0561 48.3884 13.4452 48.3884 18.8593C51.6594 18.8593 54.8894 18.8593 58.1068 18.8593C58.1068 13.4124 58.1068 8.02235 58.1068 2.61804C54.8443 2.61804 51.6294 2.61804 48.3884 2.61804ZM59.8462 2.61447C59.8462 8.05329 59.8462 13.4469 59.8462 18.8713C63.0989 18.8713 66.3104 18.8713 69.5536 18.8713C69.5536 13.4355 69.5536 8.04485 69.5536 2.61447C66.2936 2.61447 63.0794 2.61447 59.8462 2.61447Z"
                        fill="#4A8780" />
                    <path id="Vector_5"
                        d="M63.8717 59.7309C63.8717 60.0345 63.9748 60.3954 63.8458 60.6272C63.68 60.9249 63.3274 61.3059 63.0564 61.305C62.7857 61.304 62.3469 60.914 62.2828 60.6272C62.1585 60.0709 62.1587 59.4487 62.2793 58.8909C62.3436 58.5933 62.7315 58.2245 63.0356 58.1531C63.5002 58.0438 63.8072 58.4133 63.8691 58.8905C63.9049 59.1662 63.8756 59.4504 63.8756 59.7307C63.8743 59.7309 63.873 59.7309 63.8717 59.7309Z"
                        fill="#4A8780" />
                    <path id="Vector_6"
                        d="M36.1042 54.8563C37.646 54.8563 39.188 54.8664 40.7298 54.851C41.3186 54.8452 41.8029 55.0069 41.8078 55.6586C41.8126 56.3139 41.3188 56.4817 40.7377 56.4808C37.6539 56.4761 34.5701 56.4761 31.4864 56.4808C30.9084 56.4817 30.4477 56.3257 30.3993 55.6657C30.362 55.1561 30.7728 54.8606 31.4788 54.858C33.0204 54.8525 34.5624 54.8565 36.1042 54.8563Z"
                        fill="#4A8780" />
                    <path id="Vector_7"
                        d="M42.6721 45.8788C44.0222 45.8917 45.1052 46.9978 45.088 48.3455C45.0709 49.6813 43.9409 50.7868 42.6094 50.7703C41.2808 50.7538 40.1669 49.6089 40.1911 48.2846C40.2158 46.9335 41.3168 45.8657 42.6721 45.8788ZM41.8006 48.459C41.9952 48.6268 42.2427 48.9949 42.5663 49.0828C43.0279 49.2082 43.3718 48.8945 43.4224 48.3949C43.4731 47.8967 43.2186 47.5777 42.7212 47.5277C42.2284 47.478 41.9318 47.7356 41.8006 48.459Z"
                        fill="#4A8780" />
                    <path id="Vector_8"
                        d="M27.1275 48.3152C27.1327 46.9614 28.221 45.8778 29.5745 45.8788C30.9271 45.8797 32.0265 46.9721 32.0255 48.3148C32.0246 49.6457 30.908 50.7641 29.5734 50.7709C28.2487 50.7774 27.1224 49.6466 27.1275 48.3152ZM29.532 47.507C29.0752 47.5768 28.7655 47.817 28.7872 48.3313C28.8082 48.8298 29.1015 49.1193 29.5951 49.1062C30.0868 49.0931 30.3699 48.794 30.3624 48.2927C30.3545 47.7806 30.036 47.5524 29.532 47.507Z"
                        fill="#4A8780" />
                    <path id="Vector_9"
                        d="M38.5399 48.2932C38.5504 49.6504 37.462 50.7594 36.1101 50.7688C34.801 50.778 33.6949 49.6888 33.6739 48.3699C33.6518 46.989 34.7061 45.8929 36.07 45.879C37.4507 45.8646 38.5292 46.9189 38.5399 48.2932ZM36.2633 47.3989C36.1562 47.3991 36.0492 47.3994 35.9421 47.3996C35.7263 47.6998 35.3796 47.9788 35.3262 48.3056C35.2525 48.756 35.5838 49.0946 36.0766 49.1089C36.6046 49.1242 36.9584 48.7888 36.8879 48.3C36.841 47.9762 36.4823 47.6976 36.2633 47.3989Z"
                        fill="#4A8780" />
                    <path id="Vector_10"
                        d="M11.5834 62.1869C11.0477 62.186 10.5115 62.1991 9.97637 62.1821C9.48099 62.1663 9.1825 61.8798 9.17331 61.3944C9.16393 60.9035 9.46543 60.5994 9.95537 60.5891C11.0494 60.5658 12.1446 60.5668 13.2389 60.585C13.7266 60.593 14.0451 60.8859 14.0434 61.3732C14.0417 61.8913 13.7196 62.1779 13.1909 62.186C12.6552 62.1944 12.1193 62.1881 11.5834 62.1869Z"
                        fill="#4A8780" />
                    <path id="Vector_11"
                        d="M11.5833 49.1261C12.1199 49.1261 12.6573 49.11 13.193 49.1308C13.7077 49.1509 14.0439 49.4299 14.0441 49.9566C14.0443 50.4508 13.7135 50.7457 13.2408 50.7583C12.1453 50.7875 11.0474 50.79 9.95226 50.7546C9.48164 50.7394 9.1627 50.4366 9.17208 49.9354C9.18145 49.4398 9.49308 49.1623 9.97382 49.1357C10.5088 49.1061 11.0467 49.1289 11.5833 49.1289C11.5833 49.128 11.5833 49.1271 11.5833 49.1261Z"
                        fill="#4A8780" />
                    <path id="Vector_12"
                        d="M60.619 49.1199C60.3389 49.119 60.0574 49.136 59.779 49.115C59.2878 49.0783 58.9994 48.8019 58.9956 48.306C58.9921 47.8387 59.2737 47.5509 59.7248 47.5203C60.3055 47.4808 60.8928 47.4783 61.4732 47.5172C61.9572 47.5496 62.2493 47.8515 62.2199 48.3553C62.1908 48.8531 61.8784 49.0996 61.3894 49.119C61.1329 49.1293 60.8757 49.121 60.619 49.1199Z"
                        fill="#4A8780" />
                    <path id="Vector_13"
                        d="M58.9809 59.7377C58.9811 59.9713 58.9867 60.2051 58.98 60.4387C58.9646 60.9791 58.7345 61.3503 58.1493 61.3522C57.5968 61.3539 57.3633 60.9907 57.3394 60.4895C57.3157 60 57.3212 59.508 57.3382 59.0179C57.356 58.5109 57.6041 58.1402 58.1347 58.131C58.7002 58.1212 58.9625 58.4897 58.9792 59.0368C58.9865 59.27 58.9807 59.5038 58.9809 59.7377Z"
                        fill="#4A8780" />
                    <path id="Vector_14"
                        d="M16.4846 10.7897C16.4838 11.0694 16.5071 11.3514 16.4786 11.6282C16.4312 12.0881 16.1555 12.3493 15.6905 12.3487C15.227 12.3482 14.9312 12.0902 14.9043 11.6293C14.8706 11.0484 14.8119 10.4467 14.9287 9.88856C14.9908 9.59212 15.3658 9.21712 15.6626 9.14756C16.1212 9.04012 16.4409 9.38474 16.4808 9.88106C16.5052 10.1822 16.4853 10.4867 16.4846 10.7897Z"
                        fill="#4A8780" />
                    <path id="Vector_15"
                        d="M9.99353 10.6815C9.99353 10.4017 9.89528 10.0644 10.017 9.85572C10.1908 9.55816 10.5071 9.19647 10.7983 9.1616C11.0283 9.13404 11.4879 9.52516 11.5368 9.78804C11.6501 10.3961 11.6086 11.0411 11.5674 11.667C11.537 12.1295 11.2132 12.3688 10.7508 12.347C10.2868 12.3253 10.0275 12.0498 9.99427 11.5907C9.97252 11.289 9.99015 10.9847 9.99015 10.6815C9.99128 10.6815 9.9924 10.6815 9.99353 10.6815Z"
                        fill="#4A8780" />
                    <path id="Vector_16"
                        d="M55.7362 10.74C55.7364 10.437 55.6343 10.0781 55.762 9.84505C55.925 9.5473 56.257 9.19124 56.5471 9.16143C56.7787 9.13762 57.2302 9.53305 57.2784 9.79799C57.3894 10.407 57.3888 11.0632 57.2793 11.6726C57.232 11.9349 56.8315 12.2546 56.5389 12.3231C56.1022 12.4252 55.7928 12.1106 55.7422 11.6479C55.7093 11.3488 55.736 11.043 55.7362 10.74Z"
                        fill="#4A8780" />
                    <path id="Vector_17"
                        d="M62.223 10.7379C62.223 11.0411 62.253 11.3478 62.216 11.6463C62.1596 12.1018 61.8549 12.4248 61.4165 12.3226C61.1242 12.2546 60.7278 11.9379 60.6763 11.6741C60.5621 11.0902 60.5527 10.4529 60.668 9.87071C60.7256 9.58009 61.1197 9.20977 61.4184 9.14733C61.8774 9.05133 62.189 9.40215 62.2241 9.89846C62.2436 10.1769 62.2276 10.458 62.2276 10.7377C62.2258 10.7379 62.2245 10.7379 62.223 10.7379Z"
                        fill="#4A8780" />
                </g>
            </g>
        </g>
    </g>
</svg>