<svg width="47" height="47" viewBox="0 0 47 47" fill="none" xmlns="http://www.w3.org/2000/svg">
<path d="M10.3816 22.7457L1.59253 13.8688C0.449951 12.8141 0.449951 11.0563 1.59253 9.9137L9.50269 2.09143C10.5574 0.948853 12.3152 0.948853 13.3699 2.09143L16.3582 4.99182L10.9089 10.441C10.6453 10.7047 10.6453 11.1442 10.9089 11.4078L11.9636 12.4625C12.0515 12.5504 12.2273 12.6383 12.4031 12.6383C12.5789 12.6383 12.7546 12.5504 12.9304 12.4625L18.2917 7.01331L22.2468 10.8805L10.3816 22.7457ZM44.4832 12.4625L40.4402 16.5055L30.5085 6.57385L34.5515 2.53088C36.2214 0.860962 38.8582 0.860962 40.5281 2.53088L44.4832 6.48596C46.1531 8.15588 46.1531 10.7926 44.4832 12.4625ZM28.575 8.50745L38.5066 18.4391L12.4031 44.5426L2.91089 46.2125C1.68042 46.4762 0.537842 45.3336 0.801514 44.1031L2.47144 34.611L28.575 8.50745ZM44.9226 33.6442C46.0652 34.6989 46.0652 36.4567 44.9226 37.5114L37.1003 45.4215C35.9578 46.5641 34.2 46.5641 33.1453 45.4215L24.2683 36.6324L36.1335 24.7672L40.0007 28.7223L34.5515 34.0836C34.2878 34.3473 34.2878 34.7867 34.5515 35.0504L35.6062 36.1051C35.8699 36.3688 36.3093 36.3688 36.573 36.1051L42.0222 30.6559L44.9226 33.6442Z" fill="white"/>
</svg>
