<svg width="89" height="177" viewBox="0 0 89 177" fill="none" xmlns="http://www.w3.org/2000/svg">
    <g id="Group" opacity="0.6">
        <path id="Vector"
            d="M49.7899 176.437C49.7899 161.742 63.105 161.742 63.105 147.045C63.105 132.344 49.7899 132.344 49.7899 117.646C49.7899 102.943 63.105 102.943 63.105 88.2387C63.105 73.538 49.7899 73.538 49.7899 58.8404C49.7899 44.1303 63.105 44.1303 63.105 29.4202C63.105 14.7101 49.7899 14.7101 49.7899 8.21993e-06"
            stroke="white" stroke-width="3" stroke-miterlimit="10" />
        <path id="Vector_2"
            d="M73.6851 176.437C73.6851 161.742 87.0001 161.742 87.0001 147.045C87.0001 132.344 73.6851 132.344 73.6851 117.646C73.6851 102.943 87.0001 102.943 87.0001 88.2387C87.0001 73.538 73.6851 73.538 73.6851 58.8404C73.6851 44.1303 87.0001 44.1303 87.0001 29.4202C87.0001 14.7101 73.6851 14.7101 73.6851 8.21993e-06"
            stroke="white" stroke-width="3" stroke-miterlimit="10" />
        <path id="Vector_3"
            d="M25.895 176.437C25.895 161.742 39.2101 161.742 39.2101 147.045C39.2101 132.344 25.895 132.344 25.895 117.646C25.895 102.943 39.2101 102.943 39.2101 88.2387C39.2101 73.538 25.895 73.538 25.895 58.8404C25.895 44.1303 39.2101 44.1303 39.2101 29.4202C39.2101 14.7101 25.895 14.7101 25.895 8.21993e-06"
            stroke="white" stroke-width="3" stroke-miterlimit="10" />
        <path id="Vector_4"
            d="M2 176.437C2 161.742 15.3151 161.742 15.3151 147.045C15.3151 132.344 2 132.344 2 117.646C2 102.943 15.3151 102.943 15.3151 88.2387C15.3151 73.538 2 73.538 2 58.8404C2 44.1303 15.3151 44.1303 15.3151 29.4202C15.3151 14.7101 2 14.7101 2 8.21993e-06"
            stroke="white" stroke-width="3" stroke-miterlimit="10" />
    </g>
</svg>