<svg width="52" height="40" viewBox="0 0 52 40" fill="none" xmlns="http://www.w3.org/2000/svg">
<path d="M25.302 10.3082C25.4778 10.1324 25.7415 10.0446 26.0051 10.0446C26.1809 10.0446 26.4446 10.1324 26.6204 10.3082L42.8801 23.5797V37.9938C42.8801 38.7848 42.177 39.4 41.4739 39.4H31.5422C30.8391 39.4 30.136 38.7848 30.136 37.9938V29.5563C30.136 28.8531 29.5208 28.15 28.7297 28.15H23.1047C22.4016 28.15 21.6985 28.8531 21.6985 29.5563V37.9938C21.6985 38.7848 21.0833 39.4 20.3801 39.4H10.5364C9.74536 39.4 9.13013 38.7848 9.13013 37.9938V23.6676L25.302 10.3082ZM50.8782 19.361C51.1418 19.5367 51.3176 19.8883 51.3176 20.152C51.3176 20.4156 51.2297 20.6793 51.054 20.8551L48.7688 23.5797C48.593 23.8434 48.3293 23.9313 47.9778 23.9313C47.7141 23.9313 47.4504 23.8434 47.2747 23.6676L26.6204 6.70471C26.4446 6.52893 26.1809 6.44104 26.0051 6.44104C25.7415 6.44104 25.4778 6.52893 25.302 6.70471L4.64771 23.6676C4.47192 23.8434 4.20825 23.9313 3.94458 23.9313C3.59302 23.9313 3.32935 23.8434 3.15356 23.5797L0.868408 20.8551C0.780518 20.6793 0.604736 20.4156 0.604736 20.152C0.604736 19.8883 0.780518 19.5367 1.04419 19.361L23.2805 0.991821C23.9836 0.464478 24.9504 0.112915 26.0051 0.112915C26.9719 0.112915 27.9387 0.464478 28.6418 0.991821L36.552 7.49573V1.1676C36.552 0.552368 36.9915 0.112915 37.6067 0.112915H42.5286C43.0559 0.112915 43.5833 0.552368 43.5833 1.1676V13.2965L50.8782 19.361Z" fill="#4A8780"/>
</svg>
