<svg width="52" height="40" viewBox="0 0 52 40" fill="none" xmlns="http://www.w3.org/2000/svg">
<path d="M37.3983 14.0875C37.3983 21.9098 29.1366 28.15 19.1171 28.15C15.5135 28.15 12.0858 27.359 9.27332 25.9528C7.33972 27.0953 4.703 28.15 1.53894 28.15C1.18738 28.15 1.0116 28.0621 0.835815 27.7985C0.747925 27.5348 0.835815 27.1832 1.0116 27.0074C1.0116 27.0074 2.94519 24.8981 4.17566 22.1735C2.06628 19.8883 0.835815 17.1637 0.835815 14.0875C0.835815 6.35315 9.00964 0.0250244 19.1171 0.0250244C29.1366 0.0250244 37.3983 6.35315 37.3983 14.0875ZM48.121 33.4235C49.2635 36.1481 51.1971 38.2574 51.1971 38.2574C51.4608 38.4332 51.4608 38.7848 51.3729 39.0485C51.285 39.3121 51.0214 39.4 50.7577 39.4C47.5057 39.4 44.869 38.3453 42.9354 37.2028C40.1229 38.609 36.7831 39.4 33.1796 39.4C25.5331 39.4 19.0292 35.8844 16.3046 30.8746C17.1835 30.9625 18.1503 30.9625 19.1171 30.9625C30.7186 30.9625 40.2108 23.4039 40.2108 14.0875C40.2108 13.5602 40.1229 12.9449 40.035 12.3297C46.7147 14.4391 51.4608 19.5367 51.4608 25.3375C51.4608 28.4137 50.1425 31.1383 48.121 33.4235Z" fill="#4A8780"/>
</svg>
